<svg xmlns="http://www.w3.org/2000/svg" viewBox="0 0 669.2 68.7">
	<title>WSU Insider</title>
	<g fill="#a61d2f">
		<path d="M1.4 2.5H17l3.2 25.2c0.6 6 1.3 12.1 2 18.1h0.4c1.1-6 2.1-12.1 3.2-18.1l5.5-25.2h12.8l5.5 25.2c1.1 5.8 2.1 12 3.2 18.1H53c0.6-6.1 1.3-12.2 1.9-18.1l3.2-25.2h14.5l-9.6 57.6H43.7l-4.4-22.9c-0.9-4.4-1.6-9.2-2.1-13.5h-0.4c-0.6 4.3-1.2 9-2.1 13.5l-4.3 22.9h-19L1.4 2.5z"/>
		<path d="M71.9 53l8.7-10.5c4.1 3.3 9.2 5.6 13.5 5.6 4.6 0 6.6-1.5 6.6-4.1 0-2.7-2.9-3.6-7.8-5.6l-7.2-3c-6.2-2.5-11.6-7.7-11.6-16 0-9.8 8.9-17.9 21.4-17.9 6.6 0 13.8 2.5 19.1 7.7l-7.6 9.6c-3.9-2.7-7.3-4.2-11.5-4.2 -3.7 0-6 1.3-6 3.9 0 2.7 3.3 3.7 8.5 5.8l7 2.7c7.2 2.8 11.3 7.8 11.3 15.8 0 9.7-8.2 18.4-22.5 18.4C86.5 61.2 78.1 58.6 71.9 53z"/>
		<path d="M120.7 32.3V2.5h15.2v31.6c0 10.3 2.7 14 8.7 14 6 0 8.9-3.7 8.9-14V2.5h14.7v29.8c0 19.7-7.4 28.9-23.6 28.9C128.5 61.2 120.7 52 120.7 32.3z"/>
		<path d="M195.8 2.5H211v57.6h-15.2V2.5z"/>
		<path d="M219.4 2.5H235l12.8 25.7 5.5 12.9h0.4c-0.7-6.2-1.9-14.9-1.9-22V2.5h14.5v57.6h-15.6l-12.8-25.8 -5.5-12.9h-0.4c0.7 6.6 1.9 14.9 1.9 22v16.7h-14.5V2.5z"/>
		<path d="M270.9 53l8.7-10.5c4.1 3.3 9.2 5.6 13.5 5.6 4.6 0 6.6-1.5 6.6-4.1 0-2.7-2.9-3.6-7.8-5.6l-7.2-3c-6.2-2.5-11.6-7.7-11.6-16 0-9.8 8.9-17.9 21.4-17.9 6.6 0 13.8 2.5 19.1 7.7l-7.6 9.6c-3.9-2.7-7.3-4.2-11.5-4.2 -3.7 0-6 1.3-6 3.9 0 2.7 3.3 3.7 8.5 5.8l7 2.7c7.2 2.8 11.3 7.8 11.3 15.8 0 9.7-8.2 18.4-22.5 18.4C285.5 61.2 277.2 58.6 270.9 53z"/>
		<path d="M320.1 2.5h15.2v57.6h-15.2V2.5z"/>
		<path d="M343.6 2.5h17c17.6 0 29.6 8.2 29.6 28.5s-12.1 29.1-28.7 29.1h-17.9V2.5zM359.8 47.9c8.3 0 14.9-3.4 14.9-16.8 0-13.5-6.6-16.3-14.9-16.3h-0.9v33.2H359.8z"/>
		<path d="M395 2.5h37.2v12.8h-22v9H429v12.8h-18.8v10.3h22.9v12.8H395V2.5z"/>
		<path d="M439.8 2.5h21.8c12.4 0 23 4.3 23 18.6 0 8.2-3.7 13.7-9.3 16.7l12.5 22.3h-17l-9.9-19.3h-5.9v19.3h-15.2V2.5zM460.6 28.8c6 0 9.2-2.7 9.2-7.6s-3.2-6.6-9.2-6.6h-5.5v14.2H460.6z"/>
	</g>
</svg>
